<svg width="30" height="30" viewBox="0 0 30 30" fill="none" xmlns="http://www.w3.org/2000/svg">
<path d="M26.2509 3.75118H26.2489L29.5988 4.42075C29.7787 4.45672 29.9266 4.58864 29.9785 4.76653C30.0048 4.85294 30.0071 4.94485 29.9853 5.03248C29.9635 5.12011 29.9183 5.20019 29.8546 5.26421L27.1104 8.01045C26.7821 8.33817 26.3371 8.5222 25.8732 8.52212H23.5986L17.8823 14.2405C17.9914 14.6522 18.0114 15.0825 17.9411 15.5027C17.8709 15.9228 17.7118 16.3231 17.4747 16.677C17.2376 17.0309 16.9278 17.3301 16.5659 17.5549C16.204 17.7796 15.7984 17.9247 15.3761 17.9804C14.9538 18.0361 14.5244 18.0011 14.1167 17.8779C13.7089 17.7546 13.3321 17.5459 13.0114 17.2656C12.6906 16.9853 12.4332 16.6398 12.2565 16.2523C12.0797 15.8647 11.9875 15.4439 11.9861 15.018C11.9864 14.558 12.0924 14.1043 12.296 13.6919C12.4996 13.2795 12.7953 12.9194 13.1602 12.6395C13.5251 12.3596 13.9495 12.1673 14.4006 12.0775C14.8517 11.9878 15.3174 12.0029 15.7617 12.1218L21.48 6.40148V4.12893C21.48 3.66523 21.6639 3.21952 21.9917 2.89173L24.7379 0.145489C24.8019 0.0817872 24.882 0.0366252 24.9696 0.0148049C25.0573 -0.00701542 25.1492 -0.0046782 25.2356 0.021568C25.4135 0.0735347 25.5454 0.22144 25.5814 0.401324L26.2509 3.75118Z" fill="#D4AA01"/>
<path d="M2.99162 15.0179C2.99368 16.7328 3.36347 18.4272 4.07606 19.987C4.78865 21.5467 5.82747 22.9355 7.12243 24.0597C8.41739 25.1838 9.93837 26.0171 11.5828 26.5035C13.2272 26.9898 14.9568 27.1178 16.6549 26.8789C18.353 26.64 19.9801 26.0396 21.4264 25.1184C22.8728 24.1972 24.1048 22.9764 25.0392 21.5386C25.9737 20.1008 26.5889 18.4792 26.8434 16.7834C27.0979 15.0876 26.9858 13.3569 26.5145 11.7081C26.4484 11.5154 26.4221 11.3114 26.4373 11.1082C26.4526 10.9051 26.509 10.7073 26.6031 10.5266C26.6973 10.346 26.8272 10.1865 26.985 10.0577C27.1427 9.92887 27.3251 9.83353 27.5209 9.77745C27.7167 9.72137 27.9219 9.70573 28.1239 9.73147C28.3259 9.75722 28.5206 9.82381 28.6961 9.9272C28.8716 10.0306 29.0242 10.1686 29.1447 10.3329C29.2651 10.4971 29.3508 10.6841 29.3967 10.8826C30.3092 14.0756 30.1358 17.4812 28.9039 20.5651C27.672 23.6489 25.4512 26.2366 22.5899 27.9221C19.7286 29.6076 16.3887 30.2955 13.0942 29.878C9.79977 29.4605 6.7371 27.9611 4.38673 25.6151C2.03892 23.2654 0.537948 20.2024 0.119473 16.9072C-0.299002 13.6119 0.388718 10.271 2.07466 7.40897C3.7606 4.54692 6.34928 2.3258 9.43428 1.09435C12.5193 -0.137104 15.9259 -0.309165 19.1193 0.605183C19.4995 0.716335 19.8203 0.973482 20.0115 1.32043C20.2027 1.66737 20.2489 2.07591 20.1398 2.45675C20.0307 2.83759 19.7753 3.15977 19.4294 3.35288C19.0835 3.54599 18.6752 3.59433 18.2938 3.48734C16.5081 2.97499 14.6278 2.88445 12.8012 3.22284C10.9745 3.56122 9.25142 4.31929 7.76774 5.43728C6.28407 6.55527 5.08037 8.00262 4.25154 9.66521C3.4227 11.3278 2.9914 13.1602 2.99162 15.0179Z" fill="#D4AA01"/>
<path d="M8.9878 15.018C8.98792 16.1105 9.28631 17.1822 9.85078 18.1176C10.4152 19.0529 11.2244 19.8164 12.1909 20.3257C13.1574 20.835 14.2446 21.0707 15.3353 21.0074C16.4259 20.9442 17.4786 20.5844 18.3798 19.9668C19.2808 19.3477 19.9954 18.494 20.4463 17.4981C20.8972 16.5022 21.0673 15.402 20.9381 14.3165C20.9032 14.053 20.9391 13.785 21.0422 13.5401C21.1452 13.2952 21.3117 13.0821 21.5245 12.9229C21.7372 12.7637 21.9886 12.6641 22.2526 12.6343C22.5167 12.6045 22.7839 12.6456 23.0268 12.7535C23.2696 12.8599 23.4799 13.0288 23.6361 13.243C23.7924 13.4572 23.889 13.709 23.9162 13.9727C24.1334 15.8277 23.7677 17.7043 22.8699 19.342C21.9721 20.9798 20.5868 22.2974 18.9061 23.1121C17.2255 23.9267 15.3329 24.198 13.4911 23.8882C11.6493 23.5784 9.94961 22.7029 8.62796 21.3832C7.30631 20.0636 6.42825 18.3652 6.11565 16.5239C5.80305 14.6826 6.07143 12.7896 6.88352 11.1077C7.69562 9.42583 9.01115 8.03847 10.6475 7.13819C12.2839 6.23791 14.16 5.86938 16.0153 6.08374C16.214 6.10217 16.4069 6.16007 16.5829 6.25406C16.7589 6.34804 16.9144 6.47621 17.0402 6.63106C17.166 6.7859 17.2597 6.9643 17.3156 7.15581C17.3716 7.34731 17.3888 7.54806 17.3662 7.74629C17.3436 7.94452 17.2816 8.13624 17.1839 8.31022C17.0863 8.48419 16.9548 8.63692 16.7974 8.75944C16.6399 8.88196 16.4596 8.97182 16.2669 9.02375C16.0743 9.07567 15.8732 9.08862 15.6755 9.06183C14.8354 8.96428 13.9841 9.04557 13.1776 9.30037C12.3711 9.55517 11.6276 9.97771 10.996 10.5402C10.3644 11.1027 9.85894 11.7925 9.51283 12.5643C9.16672 13.336 8.9878 14.1722 8.9878 15.018Z" fill="#D4AA01"/>
</svg>
