<svg width="536" height="216" viewBox="0 0 536 216" fill="none" xmlns="http://www.w3.org/2000/svg">
<path fill-rule="evenodd" clip-rule="evenodd" d="M32.3263 37.7304C21.1994 41.1412 11.995 51.8714 10.5618 63.1003C10.408 70.9886 10.5618 74.1144 10.7975 83.8826C10.7975 88.2393 10.7997 91.4754 10.7975 92.9284C10.7941 94.3811 10.9718 96.5174 10.7975 99.7013C10.408 110.584 10.802 113.815 10.7975 121.502C10.793 130.284 13.5296 136.582 19.8902 142.432C26.2723 148.301 31.7568 150.397 41.9784 150.872C49.701 151.231 51.4702 150.951 56.8793 148.518C68.5181 143.28 75.526 132.932 75.4751 121.058C75.4482 114.616 73.4534 109.912 67.1029 101.31C62.0739 94.4987 62.2409 92.4662 68.5293 83.8826C73.8369 76.64 75.5 72.385 75.5 66.0509C75.5 57.9618 72.434 51.6402 65.3439 45.1131C55.8926 36.4113 44.7532 33.9203 32.3263 37.7304ZM48.7505 47.4163C58.1172 49.8087 65.1749 59.4636 63.9074 68.1528C63.5104 70.8771 61.2148 75.2047 57.4419 80.34C51.7353 88.1097 51.6033 88.4561 52.0319 94.6316C52.4207 100.252 53.0624 101.696 57.7678 107.519C60.6813 111.126 63.3887 115.656 63.7823 117.587C66.2256 129.563 56.3967 140.687 43.3732 140.687C36.548 140.687 31.7084 138.706 27.3255 134.115C20.2984 126.753 22.2475 121.525 21.9345 110.095C22.4014 95.0144 21.9345 95.1052 21.9345 80.9476C21.2738 76.2585 21.8376 69.9766 21.9402 68.9646C21.2794 58.0237 30.1095 46.8885 42.2366 46.4166C43.477 46.3679 46.4085 46.8179 48.7505 47.4163Z" fill="black"/>
<path fill-rule="evenodd" clip-rule="evenodd" d="M33.2967 41.6251C24.2241 44.8283 16.719 54.9053 15.5504 65.4508C15.425 72.8588 15.5504 75.7944 15.7426 84.968C15.7426 89.0596 15.7444 92.0986 15.7426 93.4632C15.7398 94.8276 15.8847 96.8336 15.7426 99.8238C15.425 110.044 15.7462 113.078 15.7426 120.298C15.7389 128.545 17.9703 134.459 23.1567 139.953C28.3605 145.466 32.8325 147.434 41.167 147.88C47.4639 148.217 48.9066 147.954 53.3168 145.669C62.8071 140.75 68.5212 131.032 68.4797 119.881C68.4576 113.831 66.8314 109.413 61.6533 101.335C57.5526 94.938 57.6887 93.0292 62.8162 84.968C67.1439 78.1662 68.5 74.1702 68.5 68.2216C68.5 60.6252 66.0002 54.6881 60.219 48.5583C52.5123 40.3862 43.4297 38.0469 33.2967 41.6251ZM46.689 50.7214C54.3265 52.9682 60.0809 62.0354 59.0477 70.1958C58.7239 72.7542 56.8519 76.8184 53.7757 81.6412C49.1225 88.9378 49.015 89.263 49.3644 95.0626C49.6815 100.341 50.2046 101.697 54.0414 107.165C56.4171 110.553 58.6246 114.808 58.9454 116.621C60.9378 127.868 52.9233 138.315 42.3043 138.315C36.7391 138.315 32.793 136.454 29.2192 132.142C23.4895 125.229 25.0788 120.319 24.8235 109.585C25.2042 95.4222 24.8235 95.5074 24.8235 82.2116C24.2848 77.808 24.7445 71.9084 24.8282 70.958C24.2894 60.6832 31.4893 50.2257 41.3775 49.7825C42.3889 49.7368 44.7792 50.1595 46.689 50.7214Z" fill="black"/>
<path d="M408.556 139.377C408.556 130.426 408.139 124.929 416.414 121.475C419.335 120.256 440.002 116.926 443 116" stroke="black" stroke-width="14" stroke-linecap="round"/>
<path d="M85.2778 89.5082H92.9445C97.1788 89.5082 100.611 92.943 100.611 97.1803V135.541H87.8334C86.422 135.541 85.2778 134.396 85.2778 132.984V89.5082Z" fill="black"/>
<path d="M115.944 93.3442C115.944 91.2257 117.661 89.5082 119.778 89.5082H131.278V132.984C131.278 134.396 130.134 135.541 128.722 135.541H115.944V93.3442Z" fill="black"/>
<path d="M141.5 139.377C141.5 137.259 143.216 135.541 145.333 135.541H177.278C181.512 135.541 184.944 138.976 184.944 143.213V150.885H149.167C144.932 150.885 141.5 147.45 141.5 143.213V139.377Z" fill="black"/>
<path d="M118.5 93.3442C118.5 91.2257 120.216 89.5082 122.333 89.5082H181.111C183.228 89.5082 184.944 91.2257 184.944 93.3442V101.016C184.944 103.135 183.228 104.852 181.111 104.852H118.5V93.3442Z" fill="black"/>
<path d="M142.385 147.09C138.198 141.882 138.375 134.412 142.802 129.407L167.059 101.983C171.195 97.3072 178.326 96.8456 183.029 100.949C183.986 101.785 184.073 103.243 183.222 104.186L144.47 147.15C143.905 147.776 142.914 147.748 142.385 147.09Z" fill="black"/>
<path d="M197.5 140C197.5 137.881 199.216 136.164 201.333 136.164H274.547C278.782 136.164 282.214 139.599 282.214 143.836L279.5 151.5L205.167 151.508C200.932 151.508 197.5 148.073 197.5 143.836V140Z" fill="black"/>
<path d="M195.167 98.1803C195.167 93.943 198.599 90.5082 202.833 90.5082H237.333C239.45 90.5082 241.167 92.2257 241.167 94.3442V102.016C241.167 104.135 239.45 105.852 237.333 105.852H195.167V98.1803Z" fill="black"/>
<path d="M198.311 148.094C194.123 142.883 194.3 135.41 198.729 130.403L222.949 103.026C227.148 98.279 234.367 97.7586 239.203 101.854C240.21 102.707 240.31 104.226 239.422 105.204L200.394 148.157C199.827 148.781 198.838 148.75 198.311 148.094Z" fill="black"/>
<path d="M306.333 150.702L327.297 95.8075L334.557 96.5248L340.818 97.1015L322.967 148.133C322.431 149.672 320.979 150.702 319.351 150.702H306.333Z" fill="black"/>
<path d="M346.739 127.869L335.722 100.109L348.326 97.4061L357.846 125.122L346.739 127.869Z" fill="black"/>
<path d="M349.052 99.5009H326.808L327.245 95.9919C327.726 92.1525 330.987 89.2714 334.853 89.2714H340.276C343.657 89.2714 346.642 91.4904 347.616 94.7321L349.052 99.5009Z" fill="black"/>
<path d="M394.5 99.7377H374.056L375.599 94.6229C376.514 91.586 379.31 89.5082 382.481 89.5082H388.988C391.878 89.5082 394.28 91.7377 394.5 94.6229V99.7377Z" fill="black"/>
<path d="M368.944 122.754L358.303 124.033L345.893 122.754L346.333 126.263C346.813 130.102 350.074 132.984 353.941 132.984H361.278C365.512 132.984 368.944 129.549 368.944 125.311V122.754Z" fill="black"/>
<path d="M355.566 125.266L376.839 92.226L388.129 100.303L366.647 130.772L355.566 125.266Z" fill="black"/>
<path d="M379.218 150.816L379.941 92.0727L390.659 92.072C392.778 92.0717 394.495 93.7895 394.495 95.9083L394.49 150.815L379.218 150.816Z" fill="black"/>
<path d="M296.032 77.6753C291.8 77.6063 288.422 74.1157 288.493 69.8791L288.531 67.4693C288.554 66.0571 289.717 64.9311 291.128 64.9541L298.789 65.0792C301.613 65.1252 303.862 67.4522 303.816 70.2766L303.694 77.8004L296.032 77.6753Z" fill="black"/>
<path d="M85.2778 132.984H131.278C131.278 142.87 123.269 150.885 113.389 150.885H103.167C93.2869 150.885 85.2778 142.87 85.2778 132.984Z" fill="black"/>
<path d="M295.919 70.2572C294.642 63.9 294.307 60.8511 288.327 57.6833C284.12 55.4549 279.26 54.6771 274.532 55.1185C268.038 55.725 264.335 58.2145 260.418 63.336C257.806 67.1773 256.5 72.5353 256.5 76.1398C256.5 80.2135 256.843 82.8982 259.255 86.3829C265.036 94.7367 274.862 93.9149 283.975 95.5398C296.962 97.855 302.5 107.238 302.5 121.114C301.355 129.366 297.389 136.371 291 141.457C287.716 144.018 280.219 144 276 144" stroke="black" stroke-width="15.3" stroke-linecap="round"/>
<path d="M405.405 138H450.5C450.5 145.18 444.726 151 437.605 151H414.395C407.274 151 401.5 145.18 401.5 138H405.405Z" fill="black"/>
<path d="M437.5 151V89H442.7C447.008 89 450.5 92.4697 450.5 96.75V145.833C450.5 148.687 448.173 151 445.3 151H437.5Z" fill="black"/>
<path d="M460.944 150.885V97.1803C460.944 92.943 464.377 89.5082 468.611 89.5082H476.278V143.213C476.278 147.45 472.846 150.885 468.611 150.885H460.944Z" fill="black"/>
<path d="M504.389 138.098C502.978 138.098 501.833 136.953 501.833 135.541V81.8361H517.167V138.098H504.389Z" fill="black"/>
<path d="M502.025 135.541H530.136V136.82C530.136 144.588 523.844 150.885 516.081 150.885C508.317 150.885 502.025 144.588 502.025 136.82V135.541Z" fill="black"/>
<path d="M466.056 93.3442C466.056 91.2257 467.773 89.5082 469.889 89.5082H489.056V104.852H466.056V93.3442Z" fill="black"/>
<path d="M496.722 89.5082H522.278V104.852H496.722V89.5082Z" fill="black"/>
<path d="M414.5 105V97C414.5 92.5816 418.081 89 422.5 89H438.5V105H414.5Z" fill="black"/>
<path d="M23.0731 165.307C26.6376 165.307 29.2743 166.202 30.9833 167.992C32.7085 169.766 33.5712 172.452 33.5712 176.049C33.5712 177.872 33.3514 179.499 32.912 180.932C32.4725 182.364 31.8052 183.585 30.91 184.594C30.0311 185.587 28.9244 186.343 27.5897 186.864C26.2551 187.385 24.6763 187.646 22.8534 187.646H20.705V201H15.3339V165.307H23.0731ZM22.7313 169.921H20.705V183.007H22.3407C23.6753 183.007 24.774 182.779 25.6366 182.323C26.4992 181.851 27.134 181.111 27.5409 180.102C27.9641 179.076 28.1757 177.742 28.1757 176.098C28.1757 173.917 27.7281 172.346 26.8329 171.386C25.954 170.409 24.5868 169.921 22.7313 169.921ZM56.1095 187.401C56.1095 189.42 55.9223 191.283 55.548 192.992C55.1736 194.701 54.5958 196.19 53.8146 197.46C53.0496 198.729 52.0486 199.722 50.8116 200.438C49.5909 201.138 48.1261 201.488 46.4171 201.488C44.7895 201.488 43.3735 201.138 42.1691 200.438C40.9646 199.739 39.9637 198.762 39.1661 197.509C38.3849 196.239 37.7989 194.75 37.4083 193.041C37.0177 191.316 36.8224 189.436 36.8224 187.401C36.8224 184.553 37.156 182.087 37.8234 180.004C38.507 177.904 39.5649 176.285 40.9972 175.146C42.4295 173.99 44.2605 173.412 46.4903 173.412C48.4923 173.412 50.2094 173.949 51.6417 175.023C53.0903 176.098 54.1971 177.676 54.962 179.76C55.727 181.827 56.1095 184.374 56.1095 187.401ZM42.0226 187.45C42.0226 189.566 42.1772 191.34 42.4864 192.772C42.812 194.205 43.3002 195.287 43.9513 196.02C44.6186 196.736 45.465 197.094 46.4903 197.094C47.5157 197.094 48.3458 196.736 48.9806 196.02C49.6316 195.303 50.1036 194.229 50.3966 192.797C50.7058 191.365 50.8605 189.566 50.8605 187.401C50.8605 185.285 50.7058 183.52 50.3966 182.104C50.1036 180.671 49.6316 179.605 48.9806 178.905C48.3458 178.189 47.5076 177.831 46.4659 177.831C44.9034 177.831 43.7722 178.629 43.0724 180.224C42.3725 181.802 42.0226 184.211 42.0226 187.45ZM69.3949 201.488C67.2627 201.488 65.4886 200.976 64.0726 199.95C62.6566 198.925 61.5987 197.387 60.8988 195.336C60.1989 193.285 59.849 190.714 59.849 187.621C59.849 184.757 60.1908 182.266 60.8744 180.15C61.5742 178.018 62.6403 176.366 64.0726 175.194C65.5049 174.006 67.3197 173.412 69.5169 173.412C70.6888 173.412 71.7468 173.542 72.6908 173.803C73.6348 174.063 74.5218 174.438 75.3519 174.926L73.8382 179.076C73.1709 178.686 72.5036 178.401 71.8363 178.222C71.1852 178.026 70.5342 177.929 69.8832 177.929C68.8415 177.929 67.9626 178.295 67.2464 179.027C66.5303 179.76 65.985 180.842 65.6107 182.274C65.2363 183.69 65.0492 185.465 65.0492 187.597C65.0492 189.68 65.2282 191.422 65.5863 192.821C65.9606 194.221 66.5059 195.279 67.222 195.995C67.9544 196.695 68.8578 197.045 69.932 197.045C70.7621 197.045 71.5921 196.907 72.4222 196.63C73.2686 196.353 74.1068 195.954 74.9369 195.434V199.804C74.1556 200.373 73.2686 200.797 72.2757 201.073C71.2829 201.35 70.3226 201.488 69.3949 201.488ZM84.3404 163.012V180.761C84.3404 181.802 84.3241 182.828 84.2916 183.837C84.259 184.83 84.1858 185.823 84.0719 186.815H84.2672C84.5439 186.181 84.8368 185.587 85.1461 185.033C85.4716 184.464 85.7809 183.935 86.0738 183.446L91.7867 173.925H97.3043L90.5172 184.667L97.7193 201H92.1529L87.026 188.598L84.3404 191.625V201H79.2135V163.012H84.3404ZM108.734 173.461C110.671 173.461 112.291 173.982 113.593 175.023C114.895 176.049 115.871 177.473 116.522 179.296C117.173 181.119 117.499 183.21 117.499 185.57V188.72H104.608C104.641 191.584 105.113 193.725 106.024 195.141C106.952 196.54 108.36 197.24 110.248 197.24C111.306 197.24 112.323 197.094 113.3 196.801C114.276 196.492 115.31 195.995 116.4 195.312V199.706C115.391 200.308 114.325 200.756 113.202 201.049C112.079 201.342 110.875 201.488 109.589 201.488C107.212 201.488 105.284 200.91 103.803 199.755C102.321 198.583 101.239 196.955 100.556 194.872C99.8882 192.789 99.5545 190.372 99.5545 187.621C99.5545 184.577 99.8963 182.006 100.58 179.906C101.264 177.807 102.289 176.212 103.656 175.121C105.023 174.014 106.716 173.461 108.734 173.461ZM108.807 177.562C107.554 177.562 106.57 178.148 105.853 179.32C105.137 180.492 104.738 182.34 104.657 184.862H112.738C112.738 183.463 112.592 182.217 112.299 181.127C112.006 180.02 111.566 179.149 110.98 178.515C110.411 177.88 109.686 177.562 108.807 177.562ZM129.857 196.972C130.28 196.972 130.719 196.923 131.175 196.825C131.647 196.711 132.111 196.549 132.566 196.337V200.487C131.964 200.797 131.297 201.041 130.565 201.22C129.848 201.399 129.075 201.488 128.245 201.488C126.878 201.488 125.763 201.203 124.9 200.634C124.038 200.048 123.403 199.177 122.996 198.021C122.606 196.866 122.41 195.409 122.41 193.651V178.197H119.822V175.414L122.752 174.071L124.022 167.992H127.537V173.925H132.249V178.197H127.537V193.31C127.537 194.547 127.7 195.466 128.025 196.068C128.367 196.671 128.978 196.972 129.857 196.972ZM160.504 201L158.234 190.966H150.031L147.76 201H141.999L150.641 165.307H157.428L166.217 201H160.504ZM157.331 186.181L155.011 175.414C154.881 174.714 154.759 174.039 154.645 173.388C154.531 172.72 154.425 172.077 154.328 171.459C154.23 170.84 154.141 170.246 154.059 169.677C154.01 170.23 153.937 170.816 153.839 171.435C153.758 172.053 153.652 172.688 153.522 173.339C153.408 173.99 153.278 174.657 153.131 175.341L150.861 186.181H157.331ZM177.525 201.488C175.393 201.488 173.619 200.976 172.203 199.95C170.787 198.925 169.729 197.387 169.029 195.336C168.329 193.285 167.979 190.714 167.979 187.621C167.979 184.757 168.321 182.266 169.005 180.15C169.705 178.018 170.771 176.366 172.203 175.194C173.635 174.006 175.45 173.412 177.647 173.412C178.819 173.412 179.877 173.542 180.821 173.803C181.765 174.063 182.652 174.438 183.482 174.926L181.969 179.076C181.301 178.686 180.634 178.401 179.967 178.222C179.316 178.026 178.665 177.929 178.013 177.929C176.972 177.929 176.093 178.295 175.377 179.027C174.661 179.76 174.115 180.842 173.741 182.274C173.367 183.69 173.179 185.465 173.179 187.597C173.179 189.68 173.359 191.422 173.717 192.821C174.091 194.221 174.636 195.279 175.352 195.995C176.085 196.695 176.988 197.045 178.062 197.045C178.892 197.045 179.722 196.907 180.553 196.63C181.399 196.353 182.237 195.954 183.067 195.434V199.804C182.286 200.373 181.399 200.797 180.406 201.073C179.413 201.35 178.453 201.488 177.525 201.488ZM195.84 201.488C193.708 201.488 191.934 200.976 190.518 199.95C189.102 198.925 188.044 197.387 187.344 195.336C186.644 193.285 186.294 190.714 186.294 187.621C186.294 184.757 186.636 182.266 187.319 180.15C188.019 178.018 189.085 176.366 190.518 175.194C191.95 174.006 193.765 173.412 195.962 173.412C197.134 173.412 198.192 173.542 199.136 173.803C200.08 174.063 200.967 174.438 201.797 174.926L200.283 179.076C199.616 178.686 198.949 178.401 198.281 178.222C197.63 178.026 196.979 177.929 196.328 177.929C195.286 177.929 194.408 178.295 193.691 179.027C192.975 179.76 192.43 180.842 192.056 182.274C191.681 183.69 191.494 185.465 191.494 187.597C191.494 189.68 191.673 191.422 192.031 192.821C192.406 194.221 192.951 195.279 193.667 195.995C194.399 196.695 195.303 197.045 196.377 197.045C197.207 197.045 198.037 196.907 198.867 196.63C199.714 196.353 200.552 195.954 201.382 195.434V199.804C200.601 200.373 199.714 200.797 198.721 201.073C197.728 201.35 196.768 201.488 195.84 201.488ZM223.871 187.401C223.871 189.42 223.684 191.283 223.31 192.992C222.935 194.701 222.358 196.19 221.576 197.46C220.811 198.729 219.81 199.722 218.574 200.438C217.353 201.138 215.888 201.488 214.179 201.488C212.551 201.488 211.135 201.138 209.931 200.438C208.727 199.739 207.726 198.762 206.928 197.509C206.147 196.239 205.561 194.75 205.17 193.041C204.78 191.316 204.584 189.436 204.584 187.401C204.584 184.553 204.918 182.087 205.585 180.004C206.269 177.904 207.327 176.285 208.759 175.146C210.191 173.99 212.022 173.412 214.252 173.412C216.254 173.412 217.971 173.949 219.404 175.023C220.852 176.098 221.959 177.676 222.724 179.76C223.489 181.827 223.871 184.374 223.871 187.401ZM209.784 187.45C209.784 189.566 209.939 191.34 210.248 192.772C210.574 194.205 211.062 195.287 211.713 196.02C212.38 196.736 213.227 197.094 214.252 197.094C215.278 197.094 216.108 196.736 216.742 196.02C217.394 195.303 217.866 194.229 218.158 192.797C218.468 191.365 218.622 189.566 218.622 187.401C218.622 185.285 218.468 183.52 218.158 182.104C217.866 180.671 217.394 179.605 216.742 178.905C216.108 178.189 215.269 177.831 214.228 177.831C212.665 177.831 211.534 178.629 210.834 180.224C210.134 181.802 209.784 184.211 209.784 187.45ZM246.361 173.925V201H242.308L241.747 197.338H241.429C241.039 198.217 240.55 198.965 239.964 199.584C239.395 200.202 238.727 200.674 237.962 201C237.214 201.326 236.376 201.488 235.448 201.488C233.869 201.488 232.567 201.098 231.542 200.316C230.532 199.519 229.784 198.388 229.295 196.923C228.823 195.442 228.587 193.684 228.587 191.649V173.925H233.714V190.307C233.714 192.536 233.95 194.197 234.422 195.287C234.911 196.361 235.676 196.898 236.717 196.898C237.889 196.898 238.801 196.573 239.452 195.922C240.103 195.255 240.558 194.262 240.819 192.943C241.096 191.625 241.234 189.997 241.234 188.061V173.925H246.361ZM263.211 173.412C265.424 173.412 267.109 174.201 268.264 175.78C269.436 177.359 270.022 179.703 270.022 182.812V201H264.895V184.13C264.895 182.095 264.659 180.565 264.187 179.54C263.715 178.498 262.901 177.978 261.746 177.978C260.183 177.978 259.06 178.702 258.377 180.15C257.709 181.599 257.376 184 257.376 187.353V201H252.249V173.925H256.326L256.863 177.611H257.205C257.595 176.732 258.084 175.984 258.67 175.365C259.256 174.73 259.931 174.25 260.696 173.925C261.461 173.583 262.299 173.412 263.211 173.412ZM283.552 196.972C283.975 196.972 284.414 196.923 284.87 196.825C285.342 196.711 285.806 196.549 286.262 196.337V200.487C285.66 200.797 284.992 201.041 284.26 201.22C283.544 201.399 282.771 201.488 281.94 201.488C280.573 201.488 279.458 201.203 278.596 200.634C277.733 200.048 277.098 199.177 276.691 198.021C276.301 196.866 276.105 195.409 276.105 193.651V178.197H273.518V175.414L276.447 174.071L277.717 167.992H281.232V173.925H285.944V178.197H281.232V193.31C281.232 194.547 281.395 195.466 281.721 196.068C282.062 196.671 282.673 196.972 283.552 196.972ZM298.18 173.412C300.752 173.412 302.648 174.218 303.868 175.829C305.089 177.44 305.699 179.8 305.699 182.909V201H301.891L301.085 197.265H300.963C300.475 198.176 299.93 198.949 299.327 199.584C298.725 200.219 298.033 200.691 297.252 201C296.487 201.326 295.592 201.488 294.567 201.488C293.118 201.488 291.938 201.106 291.027 200.341C290.115 199.56 289.448 198.542 289.025 197.289C288.601 196.036 288.39 194.701 288.39 193.285C288.39 190.535 289.163 188.427 290.709 186.962C292.272 185.497 294.485 184.7 297.35 184.569L300.573 184.398V182.934C300.573 181.111 300.312 179.768 299.791 178.905C299.27 178.043 298.416 177.611 297.228 177.611C296.463 177.611 295.641 177.758 294.762 178.051C293.899 178.327 292.947 178.767 291.906 179.369L290.416 175.536C291.539 174.836 292.752 174.307 294.054 173.949C295.372 173.591 296.748 173.412 298.18 173.412ZM300.597 187.963L298.448 188.085C296.805 188.183 295.584 188.646 294.786 189.477C293.989 190.307 293.59 191.511 293.59 193.09C293.59 194.538 293.842 195.613 294.347 196.312C294.868 197.012 295.592 197.362 296.52 197.362C297.773 197.362 298.766 196.76 299.498 195.556C300.231 194.335 300.597 192.675 300.597 190.575V187.963ZM316.617 163.012V173.339C316.617 173.86 316.6 174.478 316.568 175.194C316.552 175.894 316.511 176.692 316.446 177.587H316.665C317.349 176.187 318.187 175.154 319.18 174.486C320.189 173.803 321.329 173.461 322.598 173.461C325.121 173.461 327.058 174.665 328.409 177.074C329.776 179.467 330.459 182.909 330.459 187.401C330.459 190.38 330.15 192.919 329.532 195.019C328.929 197.118 328.042 198.721 326.871 199.828C325.699 200.935 324.275 201.488 322.598 201.488C321.329 201.488 320.222 201.203 319.278 200.634C318.334 200.048 317.463 199.079 316.665 197.729H316.373L315.64 201H311.49V163.012H316.617ZM321.109 177.929C319.937 177.929 319.026 178.303 318.374 179.052C317.723 179.784 317.268 180.818 317.007 182.152C316.747 183.471 316.617 185.025 316.617 186.815V188.061C316.617 191.153 316.983 193.44 317.715 194.921C318.464 196.386 319.603 197.118 321.133 197.118C322.5 197.118 323.526 196.329 324.209 194.75C324.893 193.155 325.235 190.689 325.235 187.353C325.235 184.211 324.901 181.859 324.234 180.297C323.583 178.718 322.541 177.929 321.109 177.929ZM340.376 173.925V201H335.273V173.925H340.376ZM337.861 163.5C338.854 163.5 339.578 163.785 340.034 164.354C340.49 164.924 340.717 165.73 340.717 166.771C340.717 167.781 340.473 168.57 339.985 169.14C339.513 169.693 338.805 169.97 337.861 169.97C336.933 169.97 336.209 169.693 335.688 169.14C335.184 168.57 334.931 167.781 334.931 166.771C334.931 165.697 335.176 164.883 335.664 164.33C336.152 163.777 336.884 163.5 337.861 163.5ZM351.391 201H346.264V163.012H351.391V201ZM362.357 173.925V201H357.254V173.925H362.357ZM359.842 163.5C360.835 163.5 361.559 163.785 362.015 164.354C362.471 164.924 362.698 165.73 362.698 166.771C362.698 167.781 362.454 168.57 361.966 169.14C361.494 169.693 360.786 169.97 359.842 169.97C358.914 169.97 358.19 169.693 357.669 169.14C357.165 168.57 356.912 167.781 356.912 166.771C356.912 165.697 357.156 164.883 357.645 164.33C358.133 163.777 358.865 163.5 359.842 163.5ZM375.959 196.972C376.383 196.972 376.822 196.923 377.278 196.825C377.75 196.711 378.214 196.549 378.669 196.337V200.487C378.067 200.797 377.4 201.041 376.667 201.22C375.951 201.399 375.178 201.488 374.348 201.488C372.981 201.488 371.866 201.203 371.003 200.634C370.141 200.048 369.506 199.177 369.099 198.021C368.708 196.866 368.513 195.409 368.513 193.651V178.197H365.925V175.414L368.855 174.071L370.124 167.992H373.64V173.925H378.352V178.197H373.64V193.31C373.64 194.547 373.803 195.466 374.128 196.068C374.47 196.671 375.081 196.972 375.959 196.972ZM379.43 173.925H384.777L388.268 188.378C388.415 189.013 388.553 189.647 388.683 190.282C388.83 190.917 388.952 191.535 389.049 192.138C389.163 192.74 389.253 193.334 389.318 193.92H389.513C389.611 193.106 389.749 192.252 389.928 191.356C390.107 190.445 390.327 189.46 390.588 188.402L393.932 173.925H399.23L391.174 204.467C390.636 206.485 390.002 208.121 389.269 209.374C388.553 210.627 387.699 211.547 386.706 212.133C385.729 212.719 384.574 213.012 383.239 213.012C382.767 213.012 382.303 212.971 381.847 212.89C381.408 212.808 380.952 212.711 380.48 212.597V208.056C380.806 208.153 381.131 208.235 381.457 208.3C381.799 208.365 382.124 208.397 382.433 208.397C383.068 208.397 383.597 208.251 384.02 207.958C384.46 207.681 384.842 207.185 385.168 206.469C385.509 205.753 385.851 204.743 386.193 203.441L386.877 200.756L379.43 173.925ZM411.519 165.307H420.112C423.514 165.307 426.069 166.023 427.778 167.455C429.487 168.871 430.342 171.044 430.342 173.974C430.342 175.438 430.147 176.732 429.756 177.855C429.382 178.979 428.82 179.898 428.071 180.614C427.339 181.33 426.444 181.819 425.386 182.079V182.299C426.688 182.624 427.754 183.153 428.584 183.886C429.414 184.618 430.025 185.554 430.415 186.693C430.822 187.816 431.026 189.159 431.026 190.722C431.026 192.805 430.643 194.62 429.878 196.166C429.113 197.696 427.998 198.884 426.533 199.73C425.069 200.577 423.303 201 421.236 201H411.519V165.307ZM416.89 180.224H420.088C421.748 180.224 422.969 179.752 423.75 178.808C424.531 177.864 424.922 176.464 424.922 174.608C424.922 173.03 424.515 171.825 423.701 170.995C422.888 170.165 421.659 169.75 420.015 169.75H416.89V180.224ZM416.89 184.594V196.41H420.747C422.326 196.41 423.514 195.914 424.312 194.921C425.125 193.912 425.532 192.39 425.532 190.355C425.532 189.086 425.329 188.028 424.922 187.182C424.515 186.335 423.929 185.692 423.164 185.253C422.399 184.813 421.472 184.594 420.381 184.594H416.89ZM453.588 173.925V201H449.536L448.974 197.338H448.657C448.266 198.217 447.778 198.965 447.192 199.584C446.622 200.202 445.955 200.674 445.19 201C444.441 201.326 443.603 201.488 442.675 201.488C441.096 201.488 439.794 201.098 438.769 200.316C437.76 199.519 437.011 198.388 436.523 196.923C436.051 195.442 435.815 193.684 435.815 191.649V173.925H440.942V190.307C440.942 192.536 441.178 194.197 441.65 195.287C442.138 196.361 442.903 196.898 443.945 196.898C445.117 196.898 446.028 196.573 446.679 195.922C447.33 195.255 447.786 194.262 448.046 192.943C448.323 191.625 448.461 189.997 448.461 188.061V173.925H453.588ZM466.361 201.488C463.757 201.488 461.779 200.276 460.428 197.851C459.077 195.409 458.402 191.951 458.402 187.475C458.402 183.015 459.077 179.556 460.428 177.099C461.796 174.641 463.716 173.412 466.19 173.412C467.036 173.412 467.834 173.575 468.583 173.9C469.331 174.21 470.007 174.665 470.609 175.268C471.227 175.87 471.756 176.61 472.196 177.489H472.391C472.359 176.578 472.326 175.788 472.294 175.121C472.261 174.438 472.245 173.835 472.245 173.314V163.012H477.347V201H473.246L472.538 197.68H472.245C471.756 198.51 471.227 199.21 470.658 199.779C470.088 200.349 469.453 200.772 468.754 201.049C468.054 201.342 467.256 201.488 466.361 201.488ZM467.728 197.167C469.226 197.167 470.349 196.459 471.097 195.043C471.862 193.611 472.245 191.438 472.245 188.524V186.84C472.245 183.78 471.879 181.534 471.146 180.102C470.43 178.653 469.283 177.929 467.704 177.929C466.304 177.929 465.27 178.743 464.603 180.37C463.936 181.981 463.602 184.341 463.602 187.45C463.602 190.673 463.944 193.098 464.628 194.726C465.311 196.353 466.345 197.167 467.728 197.167ZM490.096 201.488C487.491 201.488 485.514 200.276 484.163 197.851C482.812 195.409 482.137 191.951 482.137 187.475C482.137 183.015 482.812 179.556 484.163 177.099C485.53 174.641 487.451 173.412 489.925 173.412C490.771 173.412 491.569 173.575 492.317 173.9C493.066 174.21 493.741 174.665 494.344 175.268C494.962 175.87 495.491 176.61 495.931 177.489H496.126C496.093 176.578 496.061 175.788 496.028 175.121C495.996 174.438 495.979 173.835 495.979 173.314V163.012H501.082V201H496.98L496.272 197.68H495.979C495.491 198.51 494.962 199.21 494.392 199.779C493.823 200.349 493.188 200.772 492.488 201.049C491.788 201.342 490.991 201.488 490.096 201.488ZM491.463 197.167C492.96 197.167 494.083 196.459 494.832 195.043C495.597 193.611 495.979 191.438 495.979 188.524V186.84C495.979 183.78 495.613 181.534 494.881 180.102C494.165 178.653 493.017 177.929 491.438 177.929C490.039 177.929 489.005 178.743 488.338 180.37C487.67 181.981 487.337 184.341 487.337 187.45C487.337 190.673 487.679 193.098 488.362 194.726C489.046 196.353 490.079 197.167 491.463 197.167ZM504.113 173.925H509.46L512.951 188.378C513.098 189.013 513.236 189.647 513.366 190.282C513.513 190.917 513.635 191.535 513.733 192.138C513.846 192.74 513.936 193.334 514.001 193.92H514.196C514.294 193.106 514.432 192.252 514.611 191.356C514.79 190.445 515.01 189.46 515.271 188.402L518.615 173.925H523.913L515.857 204.467C515.319 206.485 514.685 208.121 513.952 209.374C513.236 210.627 512.382 211.547 511.389 212.133C510.412 212.719 509.257 213.012 507.922 213.012C507.45 213.012 506.986 212.971 506.53 212.89C506.091 212.808 505.635 212.711 505.163 212.597V208.056C505.489 208.153 505.814 208.235 506.14 208.3C506.482 208.365 506.807 208.397 507.116 208.397C507.751 208.397 508.28 208.251 508.703 207.958C509.143 207.681 509.525 207.185 509.851 206.469C510.193 205.753 510.534 204.743 510.876 203.441L511.56 200.756L504.113 173.925Z" fill="black"/>
</svg>
